<svg width="191" height="76" viewBox="0 0 191 76" fill="none" xmlns="http://www.w3.org/2000/svg">
<path d="M9.168 61.838V63.112C11.898 62.958 12.738 60.214 12.738 55.468V54.32H15.804V63H17.19V53.116H11.422V55.454C11.422 59.472 10.834 61.614 9.168 61.838ZM18.9396 59.444C18.9396 61.6 20.6476 63.168 22.7616 63.168C24.8616 63.168 26.5696 61.6 26.5696 59.444C26.5696 57.302 24.8616 55.748 22.7476 55.748C20.6476 55.748 18.9396 57.302 18.9396 59.444ZM20.3256 59.444C20.3256 57.974 21.4176 56.924 22.7616 56.924C24.0916 56.924 25.1976 57.974 25.1976 59.444C25.1976 60.928 24.0916 61.992 22.7616 61.992C21.4176 61.992 20.3256 60.928 20.3256 59.444ZM28.2063 63H29.5643V57.078H32.6443V55.916H28.2063V63ZM33.2677 59.444C33.2677 61.6 34.9757 63.168 37.0897 63.168C39.1897 63.168 40.8977 61.6 40.8977 59.444C40.8977 57.302 39.1897 55.748 37.0757 55.748C34.9757 55.748 33.2677 57.302 33.2677 59.444ZM34.6537 59.444C34.6537 57.974 35.7457 56.924 37.0897 56.924C38.4197 56.924 39.5257 57.974 39.5257 59.444C39.5257 60.928 38.4197 61.992 37.0897 61.992C35.7457 61.992 34.6537 60.928 34.6537 59.444ZM44.01 63H45.354V57.078H47.832V55.916H41.546V57.078H44.01V63ZM49.1652 63H50.4672L53.5332 58.772C53.7572 58.436 54.1072 57.96 54.1492 57.834H54.1772C54.1772 57.946 54.1352 58.436 54.1352 58.772V63H55.4512V55.916H54.1352L51.0832 60.144C50.8452 60.48 50.5092 60.97 50.4532 61.096H50.4252C50.4392 61.026 50.4672 60.522 50.4672 60.144V55.916H49.1652V63ZM57.5324 63H58.8904V57.078H62.3624V63H63.7204V55.916H57.5324V63ZM69.3176 63H72.3416C73.8816 63 74.9456 62.3 74.9456 60.984C74.9456 60.2 74.4836 59.514 73.6016 59.304V59.29C74.2456 59.01 74.6096 58.422 74.6096 57.736C74.6096 56.546 73.6716 55.916 72.2436 55.916H69.3176V63ZM70.6756 58.912V56.854H71.9636C72.8176 56.854 73.2236 57.19 73.2236 57.834C73.2236 58.492 72.8176 58.912 72.0056 58.912H70.6756ZM70.6756 62.048V59.822H72.1176C73.0556 59.822 73.5736 60.242 73.5736 60.942C73.5736 61.6 73.1116 62.048 72.1316 62.048H70.6756ZM76.003 61.068C76.003 62.398 77.137 63.168 78.369 63.168C79.419 63.168 80.287 62.538 80.693 61.726H80.721C80.721 61.726 80.679 61.964 80.679 62.286V63H81.953V58.52C81.953 56.728 80.931 55.748 79.153 55.748C78.159 55.748 77.081 56.112 76.507 56.588L77.053 57.582C77.627 57.176 78.341 56.896 79.041 56.896C79.923 56.896 80.595 57.288 80.595 58.45V58.59H80.231C78.761 58.59 76.003 58.842 76.003 61.068ZM77.361 60.956C77.361 59.654 79.237 59.57 80.245 59.57H80.595V59.836C80.595 60.886 79.881 62.09 78.691 62.09C77.809 62.09 77.361 61.516 77.361 60.956ZM83.9602 63H93.1162V55.916H91.8142V61.824H89.1962V55.916H87.8802V61.824H85.2622V55.916H83.9602V63ZM94.7501 59.458C94.7501 61.558 96.2901 63.168 98.5161 63.168C99.4961 63.168 100.574 62.79 101.26 62.16L100.686 61.166C100.126 61.67 99.3561 61.992 98.6001 61.992C97.3261 61.992 96.2341 61.166 96.1641 59.64H101.316C101.344 59.444 101.372 59.248 101.372 59.066C101.372 57.246 100.308 55.748 98.3061 55.748C96.2901 55.748 94.7501 57.204 94.7501 59.458ZM96.2061 58.66C96.4021 57.484 97.2281 56.798 98.2781 56.798C99.2021 56.798 99.9581 57.442 100 58.66H96.2061ZM103.005 63H104.363V57.078H107.443V55.916H103.005V63ZM108.067 59.444C108.067 61.6 109.775 63.168 111.889 63.168C113.989 63.168 115.697 61.6 115.697 59.444C115.697 57.302 113.989 55.748 111.875 55.748C109.775 55.748 108.067 57.302 108.067 59.444ZM109.453 59.444C109.453 57.974 110.545 56.924 111.889 56.924C113.219 56.924 114.325 57.974 114.325 59.444C114.325 60.928 113.219 61.992 111.889 61.992C110.545 61.992 109.453 60.928 109.453 59.444ZM120.539 63H121.855L122.163 58.786C122.191 58.366 122.149 57.568 122.149 57.568H122.177C122.177 57.568 122.401 58.1 122.625 58.618L124.305 62.146H125.467L127.147 58.604C127.413 58.058 127.595 57.568 127.595 57.568H127.623C127.623 57.568 127.595 58.366 127.609 58.786L127.917 63H129.233L128.617 55.916H127.133L125.285 59.92C125.103 60.354 124.893 60.872 124.893 60.872H124.865C124.865 60.872 124.669 60.34 124.473 59.92L122.667 55.916H121.155L120.539 63ZM130.472 61.068C130.472 62.398 131.606 63.168 132.838 63.168C133.888 63.168 134.756 62.538 135.162 61.726H135.19C135.19 61.726 135.148 61.964 135.148 62.286V63H136.422V58.52C136.422 56.728 135.4 55.748 133.622 55.748C132.628 55.748 131.55 56.112 130.976 56.588L131.522 57.582C132.096 57.176 132.81 56.896 133.51 56.896C134.392 56.896 135.064 57.288 135.064 58.45V58.59H134.7C133.23 58.59 130.472 58.842 130.472 61.068ZM131.83 60.956C131.83 59.654 133.706 59.57 134.714 59.57H135.064V59.836C135.064 60.886 134.35 62.09 133.16 62.09C132.278 62.09 131.83 61.516 131.83 60.956ZM138.429 63H139.787V57.078H142.867V55.916H138.429V63ZM143.542 61.068C143.542 62.398 144.676 63.168 145.908 63.168C146.958 63.168 147.826 62.538 148.232 61.726H148.26C148.26 61.726 148.218 61.964 148.218 62.286V63H149.492V58.52C149.492 56.728 148.47 55.748 146.692 55.748C145.698 55.748 144.62 56.112 144.046 56.588L144.592 57.582C145.166 57.176 145.88 56.896 146.58 56.896C147.462 56.896 148.134 57.288 148.134 58.45V58.59H147.77C146.3 58.59 143.542 58.842 143.542 61.068ZM144.9 60.956C144.9 59.654 146.776 59.57 147.784 59.57H148.134V59.836C148.134 60.886 147.42 62.09 146.23 62.09C145.348 62.09 144.9 61.516 144.9 60.956ZM150.813 62.132C151.401 62.692 152.325 63.168 153.417 63.168C154.873 63.168 156.133 62.426 156.133 60.97C156.133 60.06 155.573 59.528 154.859 59.304V59.276C155.419 59.038 155.895 58.548 155.895 57.666C155.895 56.406 154.845 55.748 153.501 55.748C152.381 55.748 151.583 56.112 151.037 56.518L151.541 57.428C152.087 57.022 152.647 56.812 153.263 56.812C154.047 56.812 154.523 57.176 154.523 57.834C154.523 58.548 153.977 58.856 153.179 58.856H152.437V59.836H153.305C154.299 59.836 154.761 60.228 154.761 60.914C154.761 61.684 154.103 62.076 153.291 62.076C152.437 62.076 151.765 61.572 151.443 61.236L150.813 62.132ZM157.775 63H159.077L162.143 58.772C162.367 58.436 162.717 57.96 162.759 57.834H162.787C162.787 57.946 162.745 58.436 162.745 58.772V63H164.061V55.916H162.745L159.693 60.144C159.455 60.48 159.119 60.97 159.063 61.096H159.035C159.049 61.026 159.077 60.522 159.077 60.144V55.916H157.775V63ZM166.142 63H167.5V59.962H171.084V63H172.442V55.916H171.084V58.8H167.5V55.916H166.142V63ZM173.948 61.068C173.948 62.398 175.082 63.168 176.314 63.168C177.364 63.168 178.232 62.538 178.638 61.726H178.666C178.666 61.726 178.624 61.964 178.624 62.286V63H179.898V58.52C179.898 56.728 178.876 55.748 177.098 55.748C176.104 55.748 175.026 56.112 174.452 56.588L174.998 57.582C175.572 57.176 176.286 56.896 176.986 56.896C177.868 56.896 178.54 57.288 178.54 58.45V58.59H178.176C176.706 58.59 173.948 58.842 173.948 61.068ZM175.306 60.956C175.306 59.654 177.182 59.57 178.19 59.57H178.54V59.836C178.54 60.886 177.826 62.09 176.636 62.09C175.754 62.09 175.306 61.516 175.306 60.956Z" fill="white"/>
<rect x="33" y="9" width="34" height="32" rx="9" fill="#FF7A1B"/>
<rect x="78" y="9" width="34" height="32" rx="9" fill="white"/>
<rect x="123" y="9" width="34" height="32" rx="9" fill="#FFD634"/>
</svg>
