<svg width="191" height="76" viewBox="0 0 191 76" fill="none" xmlns="http://www.w3.org/2000/svg">
<path d="M10.168 66.838V68.112C12.898 67.958 13.738 65.214 13.738 60.468V59.32H16.804V68H18.19V58.116H12.422V60.454C12.422 64.472 11.834 66.614 10.168 66.838ZM19.9396 64.444C19.9396 66.6 21.6476 68.168 23.7616 68.168C25.8616 68.168 27.5696 66.6 27.5696 64.444C27.5696 62.302 25.8616 60.748 23.7476 60.748C21.6476 60.748 19.9396 62.302 19.9396 64.444ZM21.3256 64.444C21.3256 62.974 22.4176 61.924 23.7616 61.924C25.0916 61.924 26.1976 62.974 26.1976 64.444C26.1976 65.928 25.0916 66.992 23.7616 66.992C22.4176 66.992 21.3256 65.928 21.3256 64.444ZM29.2063 68H30.5643V62.078H33.6443V60.916H29.2063V68ZM34.2677 64.444C34.2677 66.6 35.9757 68.168 38.0897 68.168C40.1897 68.168 41.8977 66.6 41.8977 64.444C41.8977 62.302 40.1897 60.748 38.0757 60.748C35.9757 60.748 34.2677 62.302 34.2677 64.444ZM35.6537 64.444C35.6537 62.974 36.7457 61.924 38.0897 61.924C39.4197 61.924 40.5257 62.974 40.5257 64.444C40.5257 65.928 39.4197 66.992 38.0897 66.992C36.7457 66.992 35.6537 65.928 35.6537 64.444ZM45.01 68H46.354V62.078H48.832V60.916H42.546V62.078H45.01V68ZM50.1652 68H51.4672L54.5332 63.772C54.7572 63.436 55.1072 62.96 55.1492 62.834H55.1772C55.1772 62.946 55.1352 63.436 55.1352 63.772V68H56.4512V60.916H55.1352L52.0832 65.144C51.8452 65.48 51.5092 65.97 51.4532 66.096H51.4252C51.4392 66.026 51.4672 65.522 51.4672 65.144V60.916H50.1652V68ZM58.5324 68H59.8904V62.078H63.3624V68H64.7204V60.916H58.5324V68ZM70.3176 68H73.3416C74.8816 68 75.9456 67.3 75.9456 65.984C75.9456 65.2 75.4836 64.514 74.6016 64.304V64.29C75.2456 64.01 75.6096 63.422 75.6096 62.736C75.6096 61.546 74.6716 60.916 73.2436 60.916H70.3176V68ZM71.6756 63.912V61.854H72.9636C73.8176 61.854 74.2236 62.19 74.2236 62.834C74.2236 63.492 73.8176 63.912 73.0056 63.912H71.6756ZM71.6756 67.048V64.822H73.1176C74.0556 64.822 74.5736 65.242 74.5736 65.942C74.5736 66.6 74.1116 67.048 73.1316 67.048H71.6756ZM77.003 66.068C77.003 67.398 78.137 68.168 79.369 68.168C80.419 68.168 81.287 67.538 81.693 66.726H81.721C81.721 66.726 81.679 66.964 81.679 67.286V68H82.953V63.52C82.953 61.728 81.931 60.748 80.153 60.748C79.159 60.748 78.081 61.112 77.507 61.588L78.053 62.582C78.627 62.176 79.341 61.896 80.041 61.896C80.923 61.896 81.595 62.288 81.595 63.45V63.59H81.231C79.761 63.59 77.003 63.842 77.003 66.068ZM78.361 65.956C78.361 64.654 80.237 64.57 81.245 64.57H81.595V64.836C81.595 65.886 80.881 67.09 79.691 67.09C78.809 67.09 78.361 66.516 78.361 65.956ZM84.9602 68H94.1162V60.916H92.8142V66.824H90.1962V60.916H88.8802V66.824H86.2622V60.916H84.9602V68ZM95.7501 64.458C95.7501 66.558 97.2901 68.168 99.5161 68.168C100.496 68.168 101.574 67.79 102.26 67.16L101.686 66.166C101.126 66.67 100.356 66.992 99.6001 66.992C98.3261 66.992 97.2341 66.166 97.1641 64.64H102.316C102.344 64.444 102.372 64.248 102.372 64.066C102.372 62.246 101.308 60.748 99.3061 60.748C97.2901 60.748 95.7501 62.204 95.7501 64.458ZM97.2061 63.66C97.4021 62.484 98.2281 61.798 99.2781 61.798C100.202 61.798 100.958 62.442 101 63.66H97.2061ZM104.005 68H105.363V62.078H108.443V60.916H104.005V68ZM109.067 64.444C109.067 66.6 110.775 68.168 112.889 68.168C114.989 68.168 116.697 66.6 116.697 64.444C116.697 62.302 114.989 60.748 112.875 60.748C110.775 60.748 109.067 62.302 109.067 64.444ZM110.453 64.444C110.453 62.974 111.545 61.924 112.889 61.924C114.219 61.924 115.325 62.974 115.325 64.444C115.325 65.928 114.219 66.992 112.889 66.992C111.545 66.992 110.453 65.928 110.453 64.444ZM121.539 68H122.855L123.163 63.786C123.191 63.366 123.149 62.568 123.149 62.568H123.177C123.177 62.568 123.401 63.1 123.625 63.618L125.305 67.146H126.467L128.147 63.604C128.413 63.058 128.595 62.568 128.595 62.568H128.623C128.623 62.568 128.595 63.366 128.609 63.786L128.917 68H130.233L129.617 60.916H128.133L126.285 64.92C126.103 65.354 125.893 65.872 125.893 65.872H125.865C125.865 65.872 125.669 65.34 125.473 64.92L123.667 60.916H122.155L121.539 68ZM131.472 66.068C131.472 67.398 132.606 68.168 133.838 68.168C134.888 68.168 135.756 67.538 136.162 66.726H136.19C136.19 66.726 136.148 66.964 136.148 67.286V68H137.422V63.52C137.422 61.728 136.4 60.748 134.622 60.748C133.628 60.748 132.55 61.112 131.976 61.588L132.522 62.582C133.096 62.176 133.81 61.896 134.51 61.896C135.392 61.896 136.064 62.288 136.064 63.45V63.59H135.7C134.23 63.59 131.472 63.842 131.472 66.068ZM132.83 65.956C132.83 64.654 134.706 64.57 135.714 64.57H136.064V64.836C136.064 65.886 135.35 67.09 134.16 67.09C133.278 67.09 132.83 66.516 132.83 65.956ZM139.429 68H140.787V62.078H143.867V60.916H139.429V68ZM144.542 66.068C144.542 67.398 145.676 68.168 146.908 68.168C147.958 68.168 148.826 67.538 149.232 66.726H149.26C149.26 66.726 149.218 66.964 149.218 67.286V68H150.492V63.52C150.492 61.728 149.47 60.748 147.692 60.748C146.698 60.748 145.62 61.112 145.046 61.588L145.592 62.582C146.166 62.176 146.88 61.896 147.58 61.896C148.462 61.896 149.134 62.288 149.134 63.45V63.59H148.77C147.3 63.59 144.542 63.842 144.542 66.068ZM145.9 65.956C145.9 64.654 147.776 64.57 148.784 64.57H149.134V64.836C149.134 65.886 148.42 67.09 147.23 67.09C146.348 67.09 145.9 66.516 145.9 65.956ZM151.813 67.132C152.401 67.692 153.325 68.168 154.417 68.168C155.873 68.168 157.133 67.426 157.133 65.97C157.133 65.06 156.573 64.528 155.859 64.304V64.276C156.419 64.038 156.895 63.548 156.895 62.666C156.895 61.406 155.845 60.748 154.501 60.748C153.381 60.748 152.583 61.112 152.037 61.518L152.541 62.428C153.087 62.022 153.647 61.812 154.263 61.812C155.047 61.812 155.523 62.176 155.523 62.834C155.523 63.548 154.977 63.856 154.179 63.856H153.437V64.836H154.305C155.299 64.836 155.761 65.228 155.761 65.914C155.761 66.684 155.103 67.076 154.291 67.076C153.437 67.076 152.765 66.572 152.443 66.236L151.813 67.132ZM158.775 68H160.077L163.143 63.772C163.367 63.436 163.717 62.96 163.759 62.834H163.787C163.787 62.946 163.745 63.436 163.745 63.772V68H165.061V60.916H163.745L160.693 65.144C160.455 65.48 160.119 65.97 160.063 66.096H160.035C160.049 66.026 160.077 65.522 160.077 65.144V60.916H158.775V68ZM167.142 68H168.5V64.962H172.084V68H173.442V60.916H172.084V63.8H168.5V60.916H167.142V68ZM174.948 66.068C174.948 67.398 176.082 68.168 177.314 68.168C178.364 68.168 179.232 67.538 179.638 66.726H179.666C179.666 66.726 179.624 66.964 179.624 67.286V68H180.898V63.52C180.898 61.728 179.876 60.748 178.098 60.748C177.104 60.748 176.026 61.112 175.452 61.588L175.998 62.582C176.572 62.176 177.286 61.896 177.986 61.896C178.868 61.896 179.54 62.288 179.54 63.45V63.59H179.176C177.706 63.59 174.948 63.842 174.948 66.068ZM176.306 65.956C176.306 64.654 178.182 64.57 179.19 64.57H179.54V64.836C179.54 65.886 178.826 67.09 177.636 67.09C176.754 67.09 176.306 66.516 176.306 65.956Z" fill="black"/>
<rect x="34" y="14" width="34" height="32" rx="9" fill="#FF7A1B"/>
<rect x="79" y="14" width="34" height="32" rx="9" fill="#2B150D"/>
<rect x="124" y="14" width="34" height="32" rx="9" fill="#FFD634"/>
</svg>
